<svg xmlns="http://www.w3.org/2000/svg" id="e9cc7481-9d21-4aa3-9403-ae7e4b5beac2" width="1081.272" height="530.317" data-name="Layer 1" viewBox="0 0 1081.272 530.317"><title>personal_file</title><ellipse cx="851.784" cy="519.317" fill="#d0cde1" rx="229.489" ry="11"/><path fill="#ffb8b8" d="M910.58074,481.36241l17.29172,67.2456s.64044,47.39214,4.483,65.96473,16.65129,63.403,16.65129,63.403l15.37043,2.56174L961.175,617.77491s0-37.78562-3.20217-46.11127-9.60651-93.5034-9.60651-93.5034Z" transform="translate(-59.36377 -184.84135)"/><path d="M910.58074,481.36241l17.29172,67.2456s.64044,47.39214,4.483,65.96473,16.65129,63.403,16.65129,63.403l15.37043,2.56174L961.175,617.77491s0-37.78562-3.20217-46.11127-9.60651-93.5034-9.60651-93.5034Z" opacity=".1" transform="translate(-59.36377 -184.84135)"/><path fill="#2f2e41" d="M958.52163,199.50989h-.00006c-21.34755,0-38.65316,19.20543-38.65316,42.89652v30.09978h9.25731l5.35946-11.15221-1.33988,11.15221h59.50245L997.52,262.36782l-1.218,10.13837h6.69933V248.87247C1003.00128,221.6103,983.08706,199.50989,958.52163,199.50989Z" transform="translate(-59.36377 -184.84135)"/><path fill="#ffb8b8" d="M894.24966,470.79525s-7.68521,32.66214,2.56174,35.86432,7.68521-35.86432,7.68521-35.86432Z" transform="translate(-59.36377 -184.84135)"/><polygon fill="#3f3d56" points="847.695 120.081 842.571 125.845 843.852 236.64 832.324 289.156 857.942 291.718 870.75 186.046 866.908 132.25 847.695 120.081"/><polygon points="847.695 120.081 842.571 125.845 843.852 236.64 832.324 289.156 857.942 291.718 870.75 186.046 866.908 132.25 847.695 120.081" opacity=".1"/><circle cx="895.738" cy="55.942" r="27.517" fill="#ffb8b8"/><path fill="#ffb8b8" d="M939.32521,257.29337s8.07169,41.82606,4.40274,46.22881,38.8909-8.0717,38.8909-8.0717-13.942-28.61783-6.60411-44.76122Z" transform="translate(-59.36377 -184.84135)"/><path fill="#ffb8b8" d="M1008.8874,440.69484s7.68521,32.66214-2.56174,35.86432-7.68521-35.86432-7.68521-35.86432Z" transform="translate(-59.36377 -184.84135)"/><path fill="#ffb8b8" d="M949.64723,473.6772s-10.88739,65.3243-10.247,74.93081,0,10.88738,0,10.88738-10.88738,28.17911-14.08955,44.19-10.247,36.50475-10.247,36.50475-8.32565,18.57259-1.28087,18.57259S930.4342,656.201,930.4342,656.201a32.706,32.706,0,0,1,7.04478-20.38918c7.68521-9.71123,30.74084-55.18207,30.74084-60.946s3.84261-22.41519,3.84261-22.41519l14.73-71.08821Z" transform="translate(-59.36377 -184.84135)"/><path fill="#2f2e41" d="M904.81683,430.12767S893.92945,485.205,903.536,486.48589s23.05563-8.32565,40.34736,2.56173,46.11127,8.32565,46.11127,8.32565,19.85346-50.59431,1.9213-62.76256S904.81683,430.12767,904.81683,430.12767Z" transform="translate(-59.36377 -184.84135)"/><path fill="#2f2e41" d="M916.98508,651.07749a17.05956,17.05956,0,0,1,8.96608-1.28087,11.69566,11.69566,0,0,0,8.32565-1.9213s-5.12348,18.57259-4.483,25.61737-1.92131,37.14519-15.37043,33.943-17.29172-12.80869-12.16825-29.46,3.84261-35.86432,3.84261-35.86432,9.34675-9.65443,11.07772-8.3496S916.98508,651.07749,916.98508,651.07749Z" transform="translate(-59.36377 -184.84135)"/><path fill="#2f2e41" d="M959.89418,674.77356s-6.40435-14.08955-14.08956-1.28087-8.32564,16.01086-8.32564,16.01086-21.77477,19.85346-6.40435,21.77476,27.53868-.64043,27.53868-3.8426,7.68521-2.56174,8.32564-5.12348-1.28087-26.2578-1.28087-26.2578Z" transform="translate(-59.36377 -184.84135)"/><path fill="#3f3d56" d="M974.304,278.665h0s-26.89824,5.12347-30.10041,4.483a15.89863,15.89863,0,0,0-2.183-.2315,32.36577,32.36577,0,0,0-17.87648,4.43318c-8.91836,5.18052-22.20922,14.40015-22.20922,23.337,0,13.44912,17.29173,36.50475,17.29173,36.50475s-16.01086,55.07735-14.73,60.20083-9.60651,22.41519-2.56174,28.1791,74.29038,0,86.45863,5.76391,6.40434-76.85211,6.40434-76.85211,32.66215-74.93081,16.01086-81.97559c-5.38806-2.27956-10.03849-4.02267-13.8645-5.33781A29.30821,29.30821,0,0,0,974.304,278.665Z" transform="translate(-59.36377 -184.84135)"/><path fill="#3f3d56" d="M999.28088,283.148l14.69512,2.42848s6.43921,6.5376,6.43921,9.73977-1.28087,141.536-3.20217,146.019-23.05563,2.56174-23.05563,2.56174L998,365.12359Z" transform="translate(-59.36377 -184.84135)"/><path fill="#2f2e41" d="M969.51,211.32646a20.27175,20.27175,0,0,0-15.995-8.16238h-.75887c-14.63166,0-26.4929,13.24-26.4929,29.57231v.00006h4.90269l.79177-6.02668,1.16089,6.02668h29.07753l2.43614-5.09868-.60905,5.09868h5.72038q4.004,19.88487-11.50616,39.76974H967.982l4.87223-10.19737-1.218,10.19737h18.57546l3.65419-23.454C993.8658,231.4873,983.66009,216.59263,969.51,211.32646Z" transform="translate(-59.36377 -184.84135)"/><circle cx="915.487" cy="14.477" r="14.477" fill="#2f2e41"/><rect width="610.03" height="390.304" x="98.382" y="18.589" fill="#3f3d56"/><rect width="274.658" height="319.471" x="416.407" y="89.06" fill="#6c63ff"/><rect width="166.58" height="6.717" x="509.306" y="118.786" fill="#fff"/><rect width="166.58" height="6.717" x="509.306" y="133.564" fill="#fff"/><rect width="56.422" height="6.717" x="509.306" y="148.341" fill="#fff"/><rect width="166.58" height="6.717" x="167.238" y="263.239" fill="#fff"/><rect width="166.58" height="6.717" x="167.238" y="278.017" fill="#fff"/><rect width="56.422" height="6.717" x="167.238" y="292.794" fill="#fff"/><rect width="166.58" height="6.717" x="470.276" y="201.184" fill="#fff"/><rect width="166.58" height="6.717" x="470.276" y="215.961" fill="#fff"/><rect width="166.58" height="6.717" x="470.276" y="230.417" fill="#fff"/><rect width="166.58" height="6.717" x="470.276" y="244.873" fill="#fff"/><rect width="166.58" height="6.717" x="470.276" y="259.328" fill="#fff"/><rect width="166.58" height="6.717" x="470.276" y="273.784" fill="#fff"/><rect width="166.58" height="6.717" x="470.276" y="288.24" fill="#fff"/><rect width="166.58" height="6.717" x="470.276" y="302.695" fill="#fff"/><rect width="166.58" height="6.717" x="470.276" y="317.151" fill="#fff"/><rect width="166.58" height="6.717" x="470.276" y="331.607" fill="#fff"/><rect width="166.58" height="6.717" x="470.276" y="346.062" fill="#fff"/><path fill="#6c63ff" d="M370.59141,341.277a60.549,60.549,0,0,1-22.52918,47.19058,59.846,59.846,0,0,1-8.30479,5.65941,58.68092,58.68092,0,0,1-5.43535,2.72492,60.10446,60.10446,0,0,1-19.43568,4.92216q-2.4719.206-4.99442.20235a59.98229,59.98229,0,0,1-9.93105-.81675c-1.15649-.18069-2.29845-.40476-3.426-.665a58.39158,58.39158,0,0,1-5.83288-1.619,60.55985,60.55985,0,0,1-21.30048-12.38853,55.24566,55.24566,0,0,1-4.5174-4.4957A60.69382,60.69382,0,1,1,370.59141,341.277Z" transform="translate(-59.36377 -184.84135)"/><path fill="#3f3d56" d="M767.41442,374.36886A101.18972,101.18972,0,0,0,666.2247,475.55858v.00013a29.63413,29.63413,0,0,1-29.63413,29.63413H587.44111a88.17961,88.17961,0,0,0-88.17961,88.17961v.00009h268.153V374.36886Z" transform="translate(-59.36377 -184.84135)"/><rect width="13.01" height="390.304" x="396.531" y="18.589" fill="#2f2e41"/><path fill="#d0cde1" d="M136.13848,672.4285c.12253,12.56057-7.30184,17.01851-16.51218,17.10836q-.32091.00313-.63879-.00093-.64043-.00757-1.2678-.046c-8.31838-.50748-14.82226-5.05475-14.93621-16.73606-.11793-12.0887,15.18345-27.49513,16.33116-28.63444l.002-.001c.0436-.04342.06592-.06513.06592-.06513S136.016,659.86894,136.13848,672.4285Z" transform="translate(-59.36377 -184.84135)"/><ellipse cx="60" cy="502.929" fill="#d0cde1" rx="60" ry="4.235"/></svg>